<?xml version="1.0" encoding="UTF-8" standalone="no"?>
<svg
   xmlns:dc="http://purl.org/dc/elements/1.1/"
   xmlns:cc="http://creativecommons.org/ns#"
   xmlns:rdf="http://www.w3.org/1999/02/22-rdf-syntax-ns#"
   xmlns:svg="http://www.w3.org/2000/svg"
   xmlns="http://www.w3.org/2000/svg"
   xmlns:sodipodi="http://sodipodi.sourceforge.net/DTD/sodipodi-0.dtd"
   xmlns:inkscape="http://www.inkscape.org/namespaces/inkscape"
   version="1.0"
   width="248.000000pt"
   height="248.000000pt"
   viewBox="0 0 248.000000 248.000000"
   preserveAspectRatio="xMidYMid meet"
   id="svg12"
   sodipodi:docname="en(ore)_10.svg"
   inkscape:version="0.92.3 (2405546, 2018-03-11)">
  <defs
     id="defs16" />
  <sodipodi:namedview
     pagecolor="#ffffff"
     bordercolor="#666666"
     borderopacity="1"
     objecttolerance="10"
     gridtolerance="10"
     guidetolerance="10"
     inkscape:pageopacity="0"
     inkscape:pageshadow="2"
     inkscape:window-width="2880"
     inkscape:window-height="1682"
     id="namedview14"
     showgrid="false"
     inkscape:zoom="1.0093379"
     inkscape:cx="168.13559"
     inkscape:cy="155.42585"
     inkscape:window-x="0"
     inkscape:window-y="0"
     inkscape:window-maximized="1"
     inkscape:current-layer="svg12" />
  <metadata
     id="metadata2">
Created by potrace 1.10, written by Peter Selinger 2001-2011
<rdf:RDF>
  <cc:Work
     rdf:about="">
    <dc:format>image/svg+xml</dc:format>
    <dc:type
       rdf:resource="http://purl.org/dc/dcmitype/StillImage" />
  </cc:Work>
</rdf:RDF>
</metadata>
  <g
     transform="matrix(0.08488472,0,0,-0.1,38.299177,251.15254)"
     id="g10"
     style="fill:#000000;stroke:none">
    <path
       d="m 1222,2438 c -7,-7 -12,-26 -12,-42 -1,-45 -21,-93 -71,-167 -24,-37 -48,-73 -54,-82 -8,-12 -44,-18 -156,-26 -81,-6 -182,-11 -225,-11 -92,0 -128,-14 -132,-52 -7,-58 58,-68 298,-48 58,4 106,7 108,6 3,-4 -66,-74 -184,-186 -102,-98 -258,-226 -329,-271 -22,-14 -66,-42 -97,-62 -63,-40 -74,-69 -40,-100 25,-23 36,-22 90,10 124,71 271,183 397,303 56,52 125,118 156,145 30,28 80,78 111,113 l 57,62 h 63 c 57,0 67,-3 108,-36 25,-20 65,-47 90,-62 25,-14 54,-33 65,-43 24,-21 130,-82 270,-154 55,-28 123,-66 151,-84 66,-42 400,-191 428,-191 30,0 46,19 46,52 0,32 -5,34 -275,154 -60,27 -136,66 -169,87 -32,21 -93,55 -135,76 -104,51 -222,118 -246,140 -11,11 -40,29 -64,41 -24,12 -39,25 -35,29 10,9 153,25 359,41 156,12 185,18 208,38 21,19 22,55 2,72 -17,14 -184,4 -440,-25 -150,-17 -355,-29 -355,-20 0,4 14,27 32,52 64,94 87,203 50,236 -22,20 -53,22 -70,5 z"
       id="path4"
       inkscape:connector-curvature="0" />
  </g>
  <path
     style="fill:#000000;stroke:none;stroke-width:0.09626983"
     inkscape:connector-curvature="0"
     d="m 145.06705,75.920817 -0.4834,14.048856 -6.76766,0.67102 c -3.67387,0.38344 -13.05192,1.15033 -20.78639,1.72549 -18.079319,1.24619 -25.040341,2.39651 -26.973959,4.31372 -1.256851,1.24619 -1.546893,4.026147 -1.450212,17.542477 0,8.81918 0.483404,25.78649 1.063489,37.76906 1.353532,29.52505 0.966809,28.94989 21.269792,27.60784 6.76766,-0.4793 16.53243,-1.05447 21.65651,-1.24619 l 9.28136,-0.4793 h 11.21498 l 23.10673,-0.67102 c 19.14281,-0.57517 23.39677,-0.95861 24.94366,-2.30066 1.5469,-1.24618 2.0303,-3.6427 2.80375,-13.51633 2.32034,-27.51198 4.15727,-64.130707 3.57719,-67.485827 -1.06349,-5.75164 -4.544,-6.71024 -21.84988,-5.94336 -7.73446,0.28759 -17.69259,0.76689 -22.23659,1.15033 l -8.21788,0.57516 0.29005,-12.021788 C 152.94668,63.15135 128.6542,67.68687 145.06705,75.920817 Z m 51.82094,34.371283 c -0.38672,6.8061 -0.87012,13.51634 -1.16017,15.14597 l -0.4834,2.87582 -20.30298,0.38344 -20.2063,0.28758 v -14.47494 -14.47495 l 4.64068,-0.0959 c 2.5137,0 6.76766,-0.38344 9.37804,-0.86274 2.70707,-0.38344 10.24817,-0.76689 16.82247,-0.86275 l 11.98843,-0.0959 z m -52.78775,4.98475 v 14.28322 l -9.37804,0.67103 c -10.82826,0.76688 -23.88017,2.01307 -30.45447,2.97167 l -4.447322,0.57517 -0.676766,-4.12201 C 98.8536,127.35528 98.660238,120.64504 98.8536,114.89341 l 0.290042,-10.54466 5.317448,-0.67103 c 6.76766,-0.9586 25.71711,-2.30065 33.64494,-2.49237 l 5.99421,-0.19172 z m 50.08069,36.42701 c -0.19336,7.38126 -0.58009,13.6122 -0.87013,13.89978 -0.29004,0.28758 -9.28136,0.76688 -20.01294,1.15033 l -19.52953,0.67102 v -13.99564 -13.99564 l 12.37515,-0.38344 c 6.76766,-0.0959 15.95234,-0.38345 20.39966,-0.47931 l 8.02451,-0.19172 z m -51.04749,2.01307 c 0,15.81699 2.32034,13.99564 -19.14282,14.85839 -8.12119,0.28758 -16.72578,0.76688 -19.04612,1.15032 l -4.25396,0.57517 -0.29005,-12.84532 c -0.19336,-7.09368 0.0967,-13.13289 0.58009,-13.51633 1.35353,-0.86275 25.2337,-3.25926 36.64205,-3.54685 l 5.51081,-0.0959 z"
     id="path3765"
     sodipodi:nodetypes="ccccsccccccccccccccccccccccccccccccccccccccccsccccccccscccccccs" />
  <path
     style="fill:#000000;stroke:none;stroke-width:0.1"
     inkscape:connector-curvature="0"
     d="m 73.180052,12.98027 c -0.8,1.3 -3.8,6.7 -6.7,12.2 -5.2,9.8 -10.1,17.9 -15.1,24.6 -1.4,1.9 -5.7,7.8 -9.5,13 -3.9,5.2 -8.1,11.1 -9.4,13 -3.6,5.2 -13.7,17.5 -20.7,25.1 -6.2999996,6.8 -7.5999996,10.2 -5.0999996,12.7 2,2 5.5999996,1.3 9.1999996,-1.9 3.8,-3.3 21.5,-24.6 25.7,-30.8 l 2.5,-3.9 -0.3,78.7 c -0.3,64 -0.2,79.1 0.9,81.1 1.7,3.2 7.2,4 8.6,1.3 0.6,-1.1 1.3,-34.8 1.7,-82.8 0.3,-44.6 0.8,-83.9 0.9,-87.5 0.2,-6.1 0.6,-7 6.4,-15.5 9.3,-13.9 18.4,-30.5 19,-34.7 0.3,-2.3 0,-4.4 -0.8,-5.3 -1.9,-2.2 -5.7,-1.8 -7.3,0.7 z"
     id="path3767" />
  <path
     style="fill:#000000;stroke:none;stroke-width:0.08761573"
     inkscape:connector-curvature="0"
     d="m 145.89121,91.806685 c -0.5811,0.64731 -0.99617,3.88386 -0.99617,7.86019 0,3.791385 -0.5811,9.802115 -1.16219,13.501025 -0.22176,15.25802 0.51534,31.99559 0.10027,63.06645 -0.49808,35.6945 -0.24904,37.7289 5.39589,46.14393 3.32055,4.80858 10.04467,11.1892 14.77645,13.77844 1.32822,0.83226 5.97699,2.31182 10.29371,3.4215 6.30905,1.66451 9.29754,2.0344 16.51974,1.57203 13.8633,-0.73978 28.63975,-5.82578 34.69976,-11.92899 3.0715,-3.14407 3.73561,-6.47309 3.40356,-16.83005 -0.33206,-11.28168 -1.32822,-13.68597 -5.3959,-12.02146 l -2.32438,0.92473 v 9.98706 c -0.083,11.28168 0.083,11.00426 -7.72028,15.07307 -5.47891,2.86665 -23.57591,6.93546 -27.56057,6.19567 -1.57726,-0.27742 -6.39206,-1.29462 -10.62576,-2.40429 -6.80713,-1.66451 -8.30138,-2.31182 -12.78412,-6.38062 -10.62577,-9.5247 -10.40459,-13.50103 -9.98952,-42.62996 0.16603,-11.46663 -0.80227,-21.17627 -0.47022,-21.54616 l 0.27284,-8.5075 c -0.41507,-1.94193 -1.70133,-29.86871 -0.78818,-33.56762 0.41507,-1.66451 1.07918,-7.39783 1.32822,-12.5763 0.49809,-8.045135 0.33206,-9.894595 -0.83014,-11.928995 -1.49424,-2.49677 -4.48274,-3.0516 -6.14301,-1.20215 z"
     id="path3825"
     sodipodi:nodetypes="sscccccccccccccccccccccs" />
</svg>
