<?xml version="1.0" encoding="UTF-8" standalone="no"?>
<svg
   xmlns:dc="http://purl.org/dc/elements/1.1/"
   xmlns:cc="http://creativecommons.org/ns#"
   xmlns:rdf="http://www.w3.org/1999/02/22-rdf-syntax-ns#"
   xmlns:svg="http://www.w3.org/2000/svg"
   xmlns="http://www.w3.org/2000/svg"
   xmlns:sodipodi="http://sodipodi.sourceforge.net/DTD/sodipodi-0.dtd"
   xmlns:inkscape="http://www.inkscape.org/namespaces/inkscape"
   version="1.0"
   width="248.000000pt"
   height="248.000000pt"
   viewBox="0 0 248.000000 248.000000"
   preserveAspectRatio="xMidYMid meet"
   id="svg10"
   sodipodi:docname="han(saka)_7.svg"
   inkscape:version="0.92.3 (2405546, 2018-03-11)">
  <defs
     id="defs14" />
  <sodipodi:namedview
     pagecolor="#ffffff"
     bordercolor="#666666"
     borderopacity="1"
     objecttolerance="10"
     gridtolerance="10"
     guidetolerance="10"
     inkscape:pageopacity="0"
     inkscape:pageshadow="2"
     inkscape:window-width="1849"
     inkscape:window-height="1421"
     id="namedview12"
     showgrid="false"
     inkscape:zoom="2.0186758"
     inkscape:cx="169.12634"
     inkscape:cy="165.33333"
     inkscape:window-x="344"
     inkscape:window-y="160"
     inkscape:window-maximized="0"
     inkscape:current-layer="svg10" />
  <metadata
     id="metadata2">
Created by potrace 1.10, written by Peter Selinger 2001-2011
<rdf:RDF>
  <cc:Work
     rdf:about="">
    <dc:format>image/svg+xml</dc:format>
    <dc:type
       rdf:resource="http://purl.org/dc/dcmitype/StillImage" />
  </cc:Work>
</rdf:RDF>
</metadata>
  <g
     transform="matrix(0.1,0,0,-0.1,3,248)"
     id="g8"
     style="fill:#000000;stroke:none">
    <path
       d="m 2129,2235 c -6,-6 -111,-17 -349,-36 -74,-6 -189,-17 -255,-26 -66,-8 -146,-17 -178,-19 -32,-2 -62,-6 -67,-9 -5,-3 -64,-10 -130,-14 -66,-5 -126,-14 -134,-20 -10,-9 -14,-74 -19,-304 -5,-274 -16,-403 -47,-552 -6,-27 -21,-111 -34,-185 C 871,821 764,418 706,278 c -19,-45 -21,-99 -4,-116 16,-16 53,-15 66,1 45,54 196,588 247,872 29,165 54,287 58,292 2,2 18,-18 36,-45 36,-53 48,-69 147,-202 39,-52 97,-133 129,-180 31,-47 66,-95 78,-107 18,-20 18,-25 7,-54 -19,-46 -112,-180 -197,-284 -73,-90 -136,-152 -223,-217 -64,-48 -65,-108 -3,-108 56,0 245,169 353,316 103,141 137,190 144,209 7,20 7,20 22,0 92,-128 314,-354 434,-442 80,-58 288,-163 325,-163 36,0 55,15 55,45 0,26 -23,47 -70,65 -19,7 -40,17 -46,22 -6,5 -42,24 -80,42 -87,43 -153,93 -276,207 -93,88 -240,255 -277,315 l -18,30 58,103 c 33,57 59,106 59,108 0,3 21,48 46,101 48,101 106,239 119,282 4,14 27,69 51,122 55,124 87,240 74,274 -20,52 -35,51 -570,-52 -157,-30 -298,-54 -315,-54 h -30 l 3,180 3,180 h 34 c 18,0 65,6 102,14 81,17 217,33 398,46 301,21 526,50 551,71 30,24 9,73 -36,84 -14,3 -28,3 -31,0 z m -224,-567 c -7,-22 -21,-58 -82,-203 -16,-38 -40,-97 -53,-130 -12,-33 -38,-91 -56,-130 -126,-270 -158,-330 -176,-330 -6,0 -49,54 -94,120 -85,123 -130,187 -189,265 -19,25 -51,70 -71,100 -20,30 -50,69 -66,86 -25,27 -28,36 -23,68 6,32 11,36 36,36 16,0 82,12 147,26 64,14 165,34 225,44 59,10 111,22 117,25 5,3 44,10 87,15 43,6 103,14 133,19 30,5 59,9 63,10 5,0 5,-9 2,-21 z"
       id="path6"
       inkscape:connector-curvature="0" />
  </g>
  <g
     id="g41"
     transform="matrix(0.1,0,0,-0.1,5.3228942,245.84252)"
     style="fill:#000000;stroke:none">
    <path
       id="path39"
       d="m 750,2103.6392 c -14,-1.828 -77,-9.1401 -140,-16.4522 -209,-25.5923 -312,-43.8724 -332,-58.4966 -19,-14.6242 -19,-28.3343 -17,-585.8804 1,-314.4194 3,-740.34802 3,-946.91426 1,-407.648435 2,-409.476454 55,-403.992395 57,6.39807 55,-24.678268 56,962.452455 v 904.8698 l 45,6.3981 c 133,19.1942 263,34.7324 266,31.9904 2,-0.9141 -24,-34.7324 -58,-74.9489 -93,-109.6812 -118,-151.7256 -118,-194.6841 0,-31.9903 6,-42.9584 39,-70.3787 50,-42.9585 90,-116.9933 143,-265.0629 36,-99.6271 48,-256.8368 26,-322.6455 -7,-21.9363 -16,-41.1305 -20,-41.1305 -4,-0.914 -29,22.8503 -55,53.0126 -50,55.7546 -81,70.3788 -109,50.2705 -21,-16.4521 -17,-57.5826 8,-87.7449 38,-46.61451 112,-114.25125 140,-127.9614 33,-15.53816 72,-16.45217 86,-0.91401 17,18.2802 52,125.21941 63,192.85611 15,85.9169 -3,212.9643 -46,325.3875 -68,178.232 -77,197.4262 -122,250.4387 l -45,53.9266 18,28.3343 c 9,15.5382 45,61.2387 79,101.4551 138,161.7798 157,218.4484 80,234.9006 -11,2.742 -31,2.742 -45,0.914 z"
       inkscape:connector-curvature="0"
       style="stroke-width:0.95603865" />
  </g>
</svg>
