<?xml version="1.0" encoding="UTF-8" standalone="no"?>
<svg
   xmlns:dc="http://purl.org/dc/elements/1.1/"
   xmlns:cc="http://creativecommons.org/ns#"
   xmlns:rdf="http://www.w3.org/1999/02/22-rdf-syntax-ns#"
   xmlns:svg="http://www.w3.org/2000/svg"
   xmlns="http://www.w3.org/2000/svg"
   xmlns:sodipodi="http://sodipodi.sourceforge.net/DTD/sodipodi-0.dtd"
   xmlns:inkscape="http://www.inkscape.org/namespaces/inkscape"
   version="1.0"
   width="248.000000pt"
   height="248.000000pt"
   viewBox="0 0 248.000000 248.000000"
   preserveAspectRatio="xMidYMid meet"
   id="svg10"
   sodipodi:docname="i(shou)_4.svg"
   inkscape:version="0.92.3 (2405546, 2018-03-11)">
  <defs
     id="defs14" />
  <sodipodi:namedview
     pagecolor="#ffffff"
     bordercolor="#666666"
     borderopacity="1"
     objecttolerance="10"
     gridtolerance="10"
     guidetolerance="10"
     inkscape:pageopacity="0"
     inkscape:pageshadow="2"
     inkscape:window-width="2229"
     inkscape:window-height="1511"
     id="namedview12"
     showgrid="false"
     inkscape:zoom="2.8548387"
     inkscape:cx="168.13559"
     inkscape:cy="165.33333"
     inkscape:window-x="0"
     inkscape:window-y="0"
     inkscape:window-maximized="0"
     inkscape:current-layer="g8" />
  <metadata
     id="metadata2">
Created by potrace 1.10, written by Peter Selinger 2001-2011
<rdf:RDF>
  <cc:Work
     rdf:about="">
    <dc:format>image/svg+xml</dc:format>
    <dc:type
       rdf:resource="http://purl.org/dc/dcmitype/StillImage" />
  </cc:Work>
</rdf:RDF>
</metadata>
  <g
     transform="translate(0.000000,248.000000) scale(0.100000,-0.100000)"
     id="g8"
     stroke="none"
     fill="#000000">
    <path
       d="m 1574.9393,2208.947 c -13.8534,-16.1722 -20.78,-83.8014 -23.5507,-242.5832 l -4.156,-217.5898 H 1473.81 c -38.7893,0 -146.8452,-10.2914 -236.8918,-22.0529 -234.1212,-30.8743 -214.7264,-35.2848 -214.7264,58.808 0,123.4969 -40.17477,363.1397 -66.49607,394.0139 -12.46796,14.702 -36.01861,24.9934 -55.41326,22.053 -56.79862,-7.351 -66.49595,-39.6954 -47.10129,-176.4241 9.69732,-67.6293 16.62398,-173.4838 16.62398,-235.2322 v -110.2651 l -84.50525,-10.2914 c -47.1013,-4.4106 -114.98257,-8.8212 -149.61588,-8.8212 -81.73459,0 -128.83588,-32.3444 -123.29456,-85.2716 6.92667,-61.7485 55.41328,-79.391 184.24917,-69.0996 60.95462,4.4107 124.6799,11.7617 142.68921,17.6425 27.70665,7.351 30.47731,2.9404 30.47731,-55.8676 0,-35.2849 -9.69732,-138.1989 -22.16531,-227.8812 l -23.55064,-163.1923 -103.89992,-10.2914 c -56.79861,-4.4106 -160.69852,-8.8212 -229.96513,-8.8212 -92.81725,0 -135.76255,-5.8808 -157.92787,-23.5232 -41.55995,-30.8743 -40.17462,-86.74195 5.54133,-117.61617 30.47731,-22.05302 62.33995,-23.52322 249.35979,-14.70201 120.52389,4.4106 213.34115,2.9404 213.34115,-4.41061 0,-47.04643 -87.27593,-351.37807 -117.75323,-410.18611 -56.79862,-111.73529 -29.09198,-188.18575 56.79861,-157.31153 67.88128,24.99342 124.67989,182.30495 205.02916,552.79563 6.92667,36.75503 12.46804,38.22523 163.4693,54.39745 85.8905,8.8212 213.3411,20.58281 283.993,24.99341 l 127.4506,8.82121 4.156,-354.31848 c 4.156,-332.26546 5.5413,-357.25887 30.4773,-376.37149 34.6333,-26.46361 51.2573,-26.46361 85.8906,0 24.936,19.11262 26.3213,44.10603 30.4773,379.31189 l 4.156,358.72909 182.8638,19.11261 c 254.9012,24.99341 277.0665,29.40401 325.5531,60.27831 70.652,45.5762 56.7986,147.0201 -20.78,147.0201 -18.0093,0 -42.9453,-5.8808 -56.7986,-13.2318 -26.3213,-16.1723 -260.4425,-45.5763 -354.645,-45.5763 h -63.7253 v 138.199 c 0,74.9802 4.156,176.424 8.312,226.4109 l 9.6973,89.6822 56.7986,8.8212 c 60.9546,8.8213 189.7905,29.404 275.6811,44.1061 62.34,10.2914 91.432,57.3379 66.496,107.3247 -22.1653,44.106 -76.1933,49.9868 -209.1852,24.9934 -65.1106,-11.7616 -134.3772,-22.053 -155.1572,-22.053 h -38.7893 v 202.8877 c 0,158.7818 -4.156,208.7686 -22.1653,235.2322 -24.936,38.2252 -77.5786,42.6358 -103.8999,7.351 z m -34.6333,-845.3657 c -5.5414,-123.4968 -11.0827,-227.8811 -13.8534,-229.3512 -1.3853,-2.9404 -80.3492,-11.7617 -174.5518,-19.1126 -94.2026,-7.3511 -218.8825,-17.6425 -278.4517,-22.0531 l -108.05607,-10.2914 6.9267,35.2849 c 15.2387,63.2186 49.87207,335.2057 49.87207,379.3118 0,38.2251 5.5413,45.5762 45.7159,52.9272 106.6705,19.1126 246.5891,33.8146 360.1863,35.2848 l 120.5239,1.4702 z"
       id="path6"
       inkscape:connector-curvature="0"
       style="stroke-width:1.42713583" />
  </g>
</svg>
