<?xml version="1.0" encoding="UTF-8" standalone="no"?>
<svg
   xmlns:dc="http://purl.org/dc/elements/1.1/"
   xmlns:cc="http://creativecommons.org/ns#"
   xmlns:rdf="http://www.w3.org/1999/02/22-rdf-syntax-ns#"
   xmlns:svg="http://www.w3.org/2000/svg"
   xmlns="http://www.w3.org/2000/svg"
   xmlns:sodipodi="http://sodipodi.sourceforge.net/DTD/sodipodi-0.dtd"
   xmlns:inkscape="http://www.inkscape.org/namespaces/inkscape"
   version="1.0"
   width="248.000000pt"
   height="248.000000pt"
   viewBox="0 0 248.000000 248.000000"
   preserveAspectRatio="xMidYMid meet"
   id="svg12"
   sodipodi:docname="sou(atsukau)_6.svg"
   inkscape:version="0.92.3 (2405546, 2018-03-11)">
  <defs
     id="defs16" />
  <sodipodi:namedview
     pagecolor="#ffffff"
     bordercolor="#666666"
     borderopacity="1"
     objecttolerance="10"
     gridtolerance="10"
     guidetolerance="10"
     inkscape:pageopacity="0"
     inkscape:pageshadow="2"
     inkscape:window-width="1937"
     inkscape:window-height="1245"
     id="namedview14"
     showgrid="false"
     inkscape:zoom="0.71370968"
     inkscape:cx="168.13559"
     inkscape:cy="165.33333"
     inkscape:window-x="670"
     inkscape:window-y="219"
     inkscape:window-maximized="0"
     inkscape:current-layer="svg12" />
  <metadata
     id="metadata2">
Created by potrace 1.10, written by Peter Selinger 2001-2011
<rdf:RDF>
  <cc:Work
     rdf:about="">
    <dc:format>image/svg+xml</dc:format>
    <dc:type
       rdf:resource="http://purl.org/dc/dcmitype/StillImage" />
  </cc:Work>
</rdf:RDF>
</metadata>
  <g
     transform="translate(0.000000,248.000000) scale(0.100000,-0.100000)"
     fill="#000000"
     stroke="none"
     id="g10">
    <path
       d="M610 2265 c-9 -11 -14 -82 -18 -249 -3 -129 -8 -240 -13 -247 -7 -12 -174 -42 -304 -56 -33 -3 -66 -10 -72 -16 -16 -12 -17 -49 -1 -65 17 -17 134 -15 265 6 95 16 113 16 118 4 8 -21 6 -496 -3 -507 -4 -6 -99 -51 -211 -99 -263 -114 -285 -126 -289 -154 -8 -56 57 -69 135 -27 93 50 346 156 360 151 10 -4 13 -64 13 -310 0 -181 -4 -307 -9 -311 -6 -3 -38 28 -73 70 -67 80 -86 92 -118 75 -28 -15 -25 -57 8 -101 63 -83 209 -229 230 -229 25 0 52 25 52 48 0 9 0 193 0 407 0 215 4 395 8 401 4 6 54 35 112 64 146 73 162 85 158 123 -6 57 -26 57 -150 -5 -62 -31 -116 -54 -120 -51 -10 5 -10 464 0 479 4 6 32 15 62 19 82 11 240 52 267 70 33 22 28 65 -9 83 -23 11 -33 10 -65 -3 -51 -22 -231 -58 -250 -51 -13 5 -14 34 -8 236 8 246 6 260 -40 260 -12 0 -28 -7 -35 -15z"
       id="path4" />
  </g>
  <g
     id="g3769"
     transform="matrix(0.1,0,0,-0.1,17.313012,245.30494)"
     style="fill:#000000;stroke:none">
    <path
       id="path3765"
       d="m 1738,2244 c -3,-2 -72,-8 -154,-13 -82,-6 -234,-22 -339,-36 -104,-15 -226,-29 -270,-32 -87,-6 -105,-14 -105,-48 0,-39 35,-59 102,-60 h 61 l -6,-155 C 1020,1715 1000,1598 919,1265 856,1006 801,825 756,730 704,621 628,487 575,409 545,365 520,319 520,306 c 0,-52 67,-65 97,-19 10,16 37,54 61,87 39,55 91,150 167,306 46,93 109,291 155,480 22,89 41,165 44,167 4,4 57,-67 138,-184 95,-138 208,-289 232,-312 14,-14 26,-30 26,-37 0,-16 -114,-187 -170,-254 -89,-106 -176,-193 -250,-249 -76,-58 -94,-87 -70,-117 7,-7 24,-14 37,-14 79,0 326,241 469,459 46,69 58,81 69,70 7,-8 90,-102 185,-209 191,-215 246,-260 397,-329 98,-45 142,-53 168,-31 23,19 15,62 -15,76 -14,7 -64,30 -111,52 -157,72 -199,111 -508,467 -64,74 -70,88 -47,120 7,11 40,70 73,131 63,114 154,369 189,527 l 18,78 -22,22 c -21,20 -34,22 -172,25 -83,2 -150,7 -150,11 0,3 17,40 39,81 160,312 191,369 214,404 27,38 34,79 19,103 -8,13 -58,34 -64,27 z m -138,-246 c -38,-73 -100,-195 -139,-271 -39,-76 -71,-148 -71,-159 0,-12 7,-30 17,-40 14,-16 34,-18 180,-18 h 164 l -6,-37 c -10,-59 -104,-331 -137,-398 -17,-33 -46,-88 -65,-123 -35,-62 -36,-63 -55,-45 -28,24 -195,252 -278,378 -22,33 -61,87 -87,119 l -47,59 29,171 c 16,100 30,228 33,309 4,117 7,137 21,137 9,0 68,7 131,16 97,14 199,23 351,32 27,2 26,1 -41,-130 z"
       inkscape:connector-curvature="0" />
  </g>
</svg>
