<?xml version="1.0" encoding="UTF-8" standalone="no"?>
<svg
   xmlns:dc="http://purl.org/dc/elements/1.1/"
   xmlns:cc="http://creativecommons.org/ns#"
   xmlns:rdf="http://www.w3.org/1999/02/22-rdf-syntax-ns#"
   xmlns:svg="http://www.w3.org/2000/svg"
   xmlns="http://www.w3.org/2000/svg"
   xmlns:sodipodi="http://sodipodi.sourceforge.net/DTD/sodipodi-0.dtd"
   xmlns:inkscape="http://www.inkscape.org/namespaces/inkscape"
   version="1.0"
   width="248.000000pt"
   height="248.000000pt"
   viewBox="0 0 248.000000 248.000000"
   preserveAspectRatio="xMidYMid meet"
   id="svg12"
   sodipodi:docname="sui(yo)_11.svg"
   inkscape:version="0.92.3 (2405546, 2018-03-11)">
  <defs
     id="defs16" />
  <sodipodi:namedview
     pagecolor="#ffffff"
     bordercolor="#666666"
     borderopacity="1"
     objecttolerance="10"
     gridtolerance="10"
     guidetolerance="10"
     inkscape:pageopacity="0"
     inkscape:pageshadow="2"
     inkscape:window-width="1941"
     inkscape:window-height="1407"
     id="namedview14"
     showgrid="false"
     inkscape:zoom="0.71370968"
     inkscape:cx="168.13559"
     inkscape:cy="165.33333"
     inkscape:window-x="516"
     inkscape:window-y="169"
     inkscape:window-maximized="0"
     inkscape:current-layer="svg12" />
  <metadata
     id="metadata2">
Created by potrace 1.10, written by Peter Selinger 2001-2011
<rdf:RDF>
  <cc:Work
     rdf:about="">
    <dc:format>image/svg+xml</dc:format>
    <dc:type
       rdf:resource="http://purl.org/dc/dcmitype/StillImage" />
  </cc:Work>
</rdf:RDF>
</metadata>
  <g
     transform="translate(0.000000,248.000000) scale(0.100000,-0.100000)"
     fill="#000000"
     stroke="none"
     id="g10">
    <path
       d="M895 2143 c-16 -2 -131 -24 -255 -48 -124 -24 -261 -49 -305 -55 -101 -15 -129 -28 -133 -62 -2 -20 4 -31 23 -44 24 -15 32 -15 123 0 54 9 102 16 106 16 12 0 0 -200 -12 -212 -5 -5 -61 -17 -126 -27 -69 -10 -123 -23 -132 -32 -13 -13 -14 -107 -14 -724 0 -623 2 -711 16 -725 12 -13 48 -15 232 -12 119 1 300 8 402 16 237 18 229 12 231 189 6 438 -1 1327 -10 1350 -19 50 -65 53 -278 21 l-43 -7 0 110 0 110 68 12 c37 7 101 16 141 21 53 6 79 13 88 26 39 54 -23 93 -122 77z m-285 -273 c0 -60 -4 -110 -9 -110 -5 0 -16 -3 -24 -6 -13 -5 -15 10 -12 108 2 62 4 114 5 116 0 1 9 2 20 2 19 0 20 -7 20 -110z m334 -212 c4 -29 3 -179 -1 -333 l-8 -280 -65 -3 c-36 -2 -84 3 -105 10 -67 22 -68 29 -54 348 l13 279 65 10 c81 13 111 18 133 20 13 1 18 -11 22 -51z m-334 -80 c0 -40 -5 -151 -10 -247 -12 -207 -3 -275 43 -327 37 -43 115 -67 218 -68 l77 -1 7 -103 c4 -57 4 -106 1 -110 -4 -3 -37 -9 -74 -13 -37 -4 -105 -12 -152 -19 -91 -12 -380 -39 -417 -40 -22 0 -23 3 -23 90 0 83 2 90 20 90 26 0 43 27 89 147 50 126 75 214 96 328 9 50 25 132 36 182 10 51 19 105 19 121 0 36 6 42 42 42 l28 0 0 -72z m-180 4 c0 -20 -4 -53 -10 -71 -5 -19 -19 -87 -30 -150 -19 -110 -79 -319 -100 -351 -6 -10 -10 86 -12 288 l-3 302 30 5 c129 20 125 21 125 -23z m514 -1099 c-3 -71 -7 -129 -8 -130 -4 -5 -293 -23 -458 -29 l-198 -6 0 113 0 114 53 2 c119 6 318 26 507 53 30 4 68 8 83 9 l29 1 -8 -127z"
       id="path6" />
  </g>
  <path
     style="fill:#000000;stroke:none;stroke-width:0.1"
     inkscape:connector-curvature="0"
     d="m 164.52203,17.29153 c -0.9,1.2 -1.6,4.3 -1.7,6.8 -0.1,7.6 -1.5,15.1 -2.9,16 -1.3,0.8 -10.6,3.1 -24,6 -7,1.6 -10,3.4 -10,6.3 0,5.4 4.4,5.9 19.9,2.2 5.7,-1.4 10.6,-2.4 10.7,-2.2 0.2,0.2 -1.8,5.6 -4.6,12 -2.7,6.4 -5,11.9 -5,12.3 0,1.5 -11.7,20.3 -15.5,24.9 -4.9,5.9 -5.5,7.3 -4.4,10.2 0.6,1.8 1.6,2.3 4.3,2.3 3,0 4,-0.7 8.4,-6.3 4.8,-6 17.2,-26.2 17.2,-28 0,-0.4 1.1,-3.3 2.5,-6.3 3.2,-7.1 9.5,-23.1 9.5,-24.3 0,-1 3.2,-2.4 10.9,-4.5 l 5.4,-1.6 -0.7,5.8 c -0.4,3.1 -1.6,11.3 -2.7,18.2 -4.9,29.1 -2.3,36 13.7,36.8 5.3,0.3 10.3,-0.2 17.1,-1.8 14.5,-3.3 15.9,-5.6 12.9,-19.7 -1.5,-7.2 -2.9,-9.3 -6.1,-9.3 -3.9,0 -4.8,2.3 -4.1,10.4 l 0.7,7.3 -5.8,1.2 c -3.2,0.7 -8.9,1.1 -12.8,0.9 l -7,-0.3 -0.3,-4.1 c -0.2,-2.2 0.7,-10.3 1.8,-18 4.5,-29.4 4.7,-32.1 3.4,-35.4 -1.1,-2.6 -1.8,-3 -5.1,-3 -2.1,0 -6.9,0.9 -10.7,2 l -6.9,1.9 0.7,-8 c 0.6,-6.5 0.4,-8.5 -0.8,-10.5 -2.1,-3.1 -6,-3.2 -8,-0.2 z"
     id="path82"
     sodipodi:nodetypes="ccccscccsccscscscccccccsccccccccsccccc" />
  <path
     style="fill:#000000;stroke:none;stroke-width:0.1"
     inkscape:connector-curvature="0"
     d="m 163.82203,101.69153 c -1,1.3 -1.5,5.8 -1.7,18 l -0.3,16.3 -4.7,1 c -7,1.4 -16.6,3.1 -26.5,4.6 -4.8,0.7 -9.4,1.9 -10.2,2.5 -2.2,1.9 -1.8,5.7 0.7,7.4 2.6,1.6 9.3,1.1 27.1,-2.2 6.9,-1.3 13.90339,-2.55085 13.90339,-1.75085 0,0 -1.55403,17.83417 -0.40339,26.25085 0.2,1.7 -0.1,15.5 -0.6,30.6 -0.6,15.1 -0.8,28.6 -0.5,30 0.7,3.4 2.6,4.9 5.5,4.5 4.2,-0.6 4.7,-3.8 5.8,-36.4 0.6,-17 1.2,-32.8 1.3,-35.1 l 0.2,-4.2 c -0.42345,-9.85291 0.5,-18.1 0.5,-18.1 0,-0.6 6.7,-2.2 22.5,-5.4 13.6,-2.8 17.5,-4 19.5,-5.8 2.4,-2.2 2.6,-6 0.5,-7.8 -1.7,-1.4 -3.8,-1.1 -14.5,1.9 -4.1,1.1 -8.6,2.1 -10,2.1 -1.4,0 -5,0.6 -8,1.4 -3,0.7 -6.7,1.6 -8.2,2 l -2.8,0.6 v -14.2 c 0,-9.5 -0.5,-15.1 -1.3,-16.8 -1.5,-3.1 -5.8,-3.8 -7.8,-1.4 z"
     id="path86"
     sodipodi:nodetypes="cccccccccccccccccccccscccscc" />
</svg>
